<svg width="30" height="30" viewBox="0 0 30 30" fill="none" xmlns="http://www.w3.org/2000/svg">
<rect width="30" height="30" rx="15" fill="white"/>
<path fill-rule="evenodd" clip-rule="evenodd" d="M10.6853 21.4986C13.1534 23.0651 16.8469 22.43 19.4489 19.8281C22.3778 16.8991 22.8144 12.587 20.4241 10.1967C18.0338 7.80637 13.7217 8.243 10.7927 11.1719C7.86381 14.1009 7.42718 18.413 9.81751 20.8033C9.86277 20.8486 9.90872 20.8928 9.95534 20.936L11.9343 18.4942L11.9343 15.7985L12.5931 17.8255L14.0143 16.2234L13.7369 14.3876L14.5249 15.4994L16.5653 13.2108L15.1308 15.7985L16.5653 16.2234L14.7512 16.6208L13.1575 18.2435L15.6652 18.4942L12.5931 19.1574L10.6853 21.4986Z" fill="#16C172"/>
</svg>
